# xmcd
#
# Track frame offsets: 
#        150
#        18502
#        30798
#        53133
#        70627
#        87751
#        105644
#        117562
#        134967
#        154092
#        189937
#        209121
#        220519
#        233267
#        256916
#        270747
#
# Disc length: 3808 seconds
#
# Revision: 0
# Processed by: cddbd v1.5.2PL0 Copyright (c) Steve Scherf et al.
# Submitted via: ExactAudioCopy v1.0b4
#
DISCID=d70ede10
DTITLE=Various Artist - Cascade Blues Asoc - Puddletown Blues Vol 2
DYEAR=2012
DGENRE=Blues
TTITLE0=Franco Paletta and The Stingers - She's My Little Girl
TTITLE1=Mary Flower - Monsoon Dance
TTITLE2=Ben Rice Band - Don't Worry Moma
TTITLE3=Steve Kerin - Bonnie and Clyde
TTITLE4=Michael Osborn and The Drivers - Two Left Feet
TTITLE5=Jerry Zybach - Devil On Her Tounge
TTITLE6=Karen Lovely - I Smell A Rat
TTITLE7=Sultans of Slide - Money, Marbles And Chalk 
TTITLE8=The Brothers Todd - Pillow Talk
TTITLE9=Jim Wallace and Rick Welter - Cold Blue Steel 
TTITLE10=Alberta Reda - Too Bad
TTITLE11=Kinzel and Hyde - Hubcap Hula
TTITLE12=Rae Gordon Band - That's Why
TTITLE13=Franck Goldwasser and James Miller - The Highway Is Like A Woma
TTITLE13=n
TTITLE14=Jeff Minnick With The Terry Robb Band - You Ought To Know
TTITLE15=Lloyd Jones - Worried Life Blues
EXTD=
EXTT0=
EXTT1=
EXTT2=
EXTT3=
EXTT4=
EXTT5=
EXTT6=
EXTT7=
EXTT8=
EXTT9=
EXTT10=
EXTT11=
EXTT12=
EXTT13=
EXTT14=
EXTT15=
PLAYORDER=
